<svg width="60" height="60" viewBox="0 0 60 60" fill="none" xmlns="http://www.w3.org/2000/svg">
<path d="M55 30C55 36.9233 52.1857 43.1891 47.639 47.7163C43.1179 52.2178 36.8839 55 30 55C16.1929 55 5 43.8071 5 30C5 23.3269 7.61449 17.2645 11.875 12.7813C16.4299 7.98819 22.866 5 30 5C36.8839 5 43.1179 7.78229 47.639 12.2837C52.1857 16.8109 55 23.0767 55 30Z" fill="white" stroke="#1F2350" stroke-width="4" stroke-linecap="round" stroke-linejoin="round"/>
<path d="M55.0004 30C51.3524 30 41.2894 28.6241 32.2835 32.579C22.5004 36.8752 15.4159 43.5394 12.3291 47.684" stroke="#1F2350" stroke-width="4" stroke-linecap="round" stroke-linejoin="round"/>
<path d="M20.625 6.81732C24.538 10.4284 33.0754 19.6232 36.25 28.7501C39.4246 37.877 40.6011 49.099 41.3257 52.2935" stroke="#1F2350" stroke-width="4" stroke-linecap="round" stroke-linejoin="round"/>
<path d="M5.19287 26.875C9.91508 27.1596 22.4161 27.4165 30.4161 23.9999C38.4161 20.5832 45.3002 14.2995 47.6614 12.3065" stroke="#1F2350" stroke-width="4" stroke-linecap="round" stroke-linejoin="round"/>
<path d="M6.875 39.5165C9.07707 44.8617 13.0785 49.2761 18.125 52.0051" stroke="#1F2350" stroke-width="4" stroke-linecap="round" stroke-linejoin="round"/>
<path d="M5 30C5 23.327 7.61449 17.2645 11.875 12.7812" stroke="#1F2350" stroke-width="4" stroke-linecap="round" stroke-linejoin="round"/>
<path d="M30 5C22.866 5 16.4299 7.98819 11.875 12.7813" stroke="#1F2350" stroke-width="4" stroke-linecap="round" stroke-linejoin="round"/>
<path d="M40 7.08022C42.8666 8.33272 45.453 10.1073 47.639 12.2837C52.1857 16.8109 55 23.0767 55 30C55 33.0784 54.4436 36.0266 53.426 38.75" stroke="#1F2350" stroke-width="4" stroke-linecap="round" stroke-linejoin="round"/>
<path d="M30 55C36.8839 55 43.1179 52.2177 47.639 47.7164" stroke="#1F2350" stroke-width="4" stroke-linecap="round" stroke-linejoin="round"/>
</svg>
