<svg width="50" height="50" viewBox="0 0 50 50" fill="none" xmlns="http://www.w3.org/2000/svg">
<path d="M24.9933 16.6628C20.4028 16.6628 16.6566 20.409 16.6566 24.9995C16.6566 29.59 20.4028 33.3363 24.9933 33.3363C29.5838 33.3363 33.33 29.59 33.33 24.9995C33.33 20.409 29.5838 16.6628 24.9933 16.6628ZM49.9972 24.9995C49.9972 21.5473 50.0285 18.1263 49.8346 14.6803C49.6407 10.6776 48.7276 7.12529 45.8007 4.19837C42.8675 1.26519 39.3214 0.358344 35.3188 0.164467C31.8665 -0.0294104 28.4455 0.00186025 24.9995 0.00186025C21.5473 0.00186025 18.1263 -0.0294104 14.6803 0.164467C10.6776 0.358344 7.12529 1.27144 4.19837 4.19837C1.26519 7.13154 0.358344 10.6776 0.164467 14.6803C-0.0294104 18.1325 0.00186025 21.5535 0.00186025 24.9995C0.00186025 28.4455 -0.0294104 31.8728 0.164467 35.3188C0.358344 39.3214 1.27144 42.8738 4.19837 45.8007C7.13155 48.7339 10.6776 49.6407 14.6803 49.8346C18.1325 50.0285 21.5535 49.9972 24.9995 49.9972C28.4518 49.9972 31.8728 50.0285 35.3188 49.8346C39.3214 49.6407 42.8738 48.7276 45.8007 45.8007C48.7339 42.8675 49.6407 39.3214 49.8346 35.3188C50.0347 31.8728 49.9972 28.4518 49.9972 24.9995ZM24.9933 37.8267C17.8949 37.8267 12.1661 32.0979 12.1661 24.9995C12.1661 17.9011 17.8949 12.1724 24.9933 12.1724C32.0917 12.1724 37.8205 17.9011 37.8205 24.9995C37.8205 32.0979 32.0917 37.8267 24.9933 37.8267ZM38.3458 14.6427C36.6885 14.6427 35.3501 13.3043 35.3501 11.647C35.3501 9.98967 36.6885 8.65129 38.3458 8.65129C40.0031 8.65129 41.3415 9.98967 41.3415 11.647C41.342 12.0406 41.2649 12.4303 41.1145 12.794C40.9641 13.1577 40.7435 13.4881 40.4652 13.7664C40.1869 14.0447 39.8565 14.2653 39.4928 14.4157C39.1291 14.5661 38.7393 14.6432 38.3458 14.6427Z" fill="white"/>
</svg>
