<svg width="50" height="50" viewBox="0 0 50 50" fill="none" xmlns="http://www.w3.org/2000/svg">
<path d="M24.9987 0C11.1906 0 0 11.1931 0 24.9987C0 35.5888 6.58876 44.6424 15.8901 48.2859C15.6699 46.309 15.4747 43.2661 15.9752 41.109C16.4306 39.1572 18.908 28.6822 18.908 28.6822C18.908 28.6822 18.1597 27.1833 18.1597 24.9687C18.1597 21.4954 20.1742 18.9005 22.684 18.9005C24.8186 18.9005 25.8471 20.502 25.8471 22.4213C25.8471 24.5683 24.4808 27.7739 23.7776 30.7467C23.1895 33.2341 25.0263 35.2635 27.4786 35.2635C31.9203 35.2635 35.3386 30.579 35.3386 23.8151C35.3386 17.8294 31.037 13.6455 24.8962 13.6455C17.7819 13.6455 13.6054 18.9805 13.6054 24.4933C13.6054 26.6403 14.4337 28.945 15.4672 30.1987C15.555 30.2931 15.617 30.4086 15.6473 30.5339C15.6775 30.6593 15.675 30.7903 15.6399 30.9144C15.4497 31.7026 15.0268 33.4017 14.9467 33.7496C14.8366 34.2075 14.5839 34.3051 14.1084 34.0849C10.9879 32.631 9.03608 28.0667 9.03608 24.3982C9.03608 16.5132 14.764 9.27131 25.5543 9.27131C34.2275 9.27131 40.9664 15.4497 40.9664 23.71C40.9664 32.3282 35.5338 39.2573 27.9941 39.2573C25.4592 39.2573 23.0794 37.9435 22.2636 36.3896L20.7047 42.3302C20.1416 44.5023 18.6177 47.2249 17.5992 48.8864C19.9968 49.6266 22.492 50.002 25.0012 50C38.8069 50 50 38.8069 50 25.0012C50 11.1956 38.8044 0 24.9987 0Z" fill="white"/>
</svg>
